{
  "asset": {
    "version": "2.0",
    "generator": "3dpea GLTFExporter"
  },
  "scenes": [
    {
      "name": "AuxScene",
      "nodes": [
        4
      ]
    }
  ],
  "scene": 0,
  "nodes": [
    {
      "name": "Cube_1",
      "mesh": 0
    },
    {
      "name": "Cube_2",
      "mesh": 1
    },
    {
      "matrix": [
        1,
        0,
        0,
        0,
        0,
        1.2999999523162842,
        0,
        0,
        0,
        0,
        0.800000011920929,
        0,
        0,
        0,
        0,
        1
      ],
      "name": "Cube",
      "extras": {
        "name": "Cube"
      },
      "children": [
        0,
        1
      ]
    },
    {
      "matrix": [
        1,
        0,
        0,
        0,
        0,
        1.2999999523162842,
        0,
        0,
        0,
        0,
        0.800000011920929,
        0,
        0,
        0,
        0.0010000000474974513,
        1
      ],
      "name": "Cube001",
      "extras": {
        "name": "Cube.001"
      },
      "mesh": 2
    },
    {
      "name": "manzu1",
      "children": [
        2,
        3
      ]
    }
  ],
  "bufferViews": [
    {
      "buffer": 0,
      "byteOffset": 0,
      "byteLength": 1428,
      "target": 34962,
      "byteStride": 12
    },
    {
      "buffer": 0,
      "byteOffset": 1428,
      "byteLength": 1428,
      "target": 34962,
      "byteStride": 12
    },
    {
      "buffer": 0,
      "byteOffset": 2856,
      "byteLength": 952,
      "target": 34962,
      "byteStride": 8
    },
    {
      "buffer": 0,
      "byteOffset": 3808,
      "byteLength": 1020,
      "target": 34963
    },
    {
      "buffer": 0,
      "byteOffset": 4828,
      "byteLength": 1368,
      "target": 34962,
      "byteStride": 12
    },
    {
      "buffer": 0,
      "byteOffset": 6196,
      "byteLength": 1368,
      "target": 34962,
      "byteStride": 12
    },
    {
      "buffer": 0,
      "byteOffset": 7564,
      "byteLength": 912,
      "target": 34962,
      "byteStride": 8
    },
    {
      "buffer": 0,
      "byteOffset": 8476,
      "byteLength": 1020,
      "target": 34963
    },
    {
      "buffer": 0,
      "byteOffset": 9496,
      "byteLength": 48,
      "target": 34962,
      "byteStride": 12
    },
    {
      "buffer": 0,
      "byteOffset": 9544,
      "byteLength": 48,
      "target": 34962,
      "byteStride": 12
    },
    {
      "buffer": 0,
      "byteOffset": 9592,
      "byteLength": 32,
      "target": 34962,
      "byteStride": 8
    },
    {
      "buffer": 0,
      "byteOffset": 9624,
      "byteLength": 12,
      "target": 34963
    }
  ],
  "buffers": [
    {
      "byteLength": 9636,
      "uri": "data:application/octet-stream;base64,"
    }
  ],
  "accessors": [
    {
      "bufferView": 0,
      "componentType": 5126,
      "count": 119,
      "max": [
        1,
        1,
        1
      ],
      "min": [
        -1,
        -1,
        -0.5894736647605896
      ],
      "type": "VEC3"
    },
    {
      "bufferView": 1,
      "componentType": 5126,
      "count": 119,
      "max": [
        0.9951865673065186,
        0.9951865673065186,
        0.9898691773414612
      ],
      "min": [
        -0.9951865673065186,
        -0.9951865673065186,
        0
      ],
      "type": "VEC3"
    },
    {
      "bufferView": 2,
      "componentType": 5126,
      "count": 119,
      "max": [
        0.875,
        1
      ],
      "min": [
        0.125,
        0
      ],
      "type": "VEC2"
    },
    {
      "bufferView": 3,
      "componentType": 5123,
      "count": 510,
      "max": [
        118
      ],
      "min": [
        0
      ],
      "type": "SCALAR"
    },
    {
      "bufferView": 4,
      "componentType": 5126,
      "count": 114,
      "max": [
        1,
        1,
        -0.5894736647605896
      ],
      "min": [
        -1,
        -1,
        -1
      ],
      "type": "VEC3"
    },
    {
      "bufferView": 5,
      "componentType": 5126,
      "count": 114,
      "max": [
        0.9951865673065186,
        0.9951865673065186,
        0
      ],
      "min": [
        -0.9951865673065186,
        -0.9951865673065186,
        -0.9898691773414612
      ],
      "type": "VEC3"
    },
    {
      "bufferView": 6,
      "componentType": 5126,
      "count": 114,
      "max": [
        0.875,
        0.8013157844543457
      ],
      "min": [
        0.125,
        0.4486842155456543
      ],
      "type": "VEC2"
    },
    {
      "bufferView": 7,
      "componentType": 5123,
      "count": 510,
      "max": [
        113
      ],
      "min": [
        0
      ],
      "type": "SCALAR"
    },
    {
      "bufferView": 8,
      "componentType": 5126,
      "count": 4,
      "max": [
        1,
        1,
        1
      ],
      "min": [
        -1,
        -1,
        1
      ],
      "type": "VEC3"
    },
    {
      "bufferView": 9,
      "componentType": 5126,
      "count": 4,
      "max": [
        0,
        0,
        1
      ],
      "min": [
        0,
        0,
        1
      ],
      "type": "VEC3"
    },
    {
      "bufferView": 10,
      "componentType": 5126,
      "count": 4,
      "max": [
        0.8442163467407227,
        0.9474812746047974
      ],
      "min": [
        0.15578356385231018,
        0.05251854658126831
      ],
      "type": "VEC2"
    },
    {
      "bufferView": 11,
      "componentType": 5123,
      "count": 6,
      "max": [
        3
      ],
      "min": [
        0
      ],
      "type": "SCALAR"
    }
  ],
  "materials": [
    {
      "pbrMetallicRoughness": {
        "baseColorFactor": [
          0.7991027380100881,
          0.7991027380100881,
          0.7991027380100881,
          1
        ],
        "metallicFactor": 0,
        "roughnessFactor": 0.5
      },
      "doubleSided": true,
      "name": "Material"
    },
    {
      "pbrMetallicRoughness": {
        "baseColorFactor": [
          0.8001017570495605,
          0.7233457565307617,
          0,
          1
        ],
        "metallicFactor": 0,
        "roughnessFactor": 0.5
      },
      "doubleSided": true,
      "name": "マテリアル"
    },
    {
      "pbrMetallicRoughness": {
        "metallicFactor": 0,
        "roughnessFactor": 0.5,
        "baseColorTexture": {
          "index": 0
        }
      },
      "alphaMode": "MASK",
      "alphaCutoff": 0.1,
      "doubleSided": true,
      "name": "マテリアル.001"
    }
  ],
  "meshes": [
    {
      "primitives": [
        {
          "mode": 4,
          "attributes": {
            "POSITION": 0,
            "NORMAL": 1,
            "TEXCOORD_0": 2
          },
          "indices": 3,
          "material": 0
        }
      ]
    },
    {
      "primitives": [
        {
          "mode": 4,
          "attributes": {
            "POSITION": 4,
            "NORMAL": 5,
            "TEXCOORD_0": 6
          },
          "indices": 7,
          "material": 1
        }
      ]
    },
    {
      "primitives": [
        {
          "mode": 4,
          "attributes": {
            "POSITION": 8,
            "NORMAL": 9,
            "TEXCOORD_0": 10
          },
          "indices": 11,
          "material": 2
        }
      ]
    }
  ],
  "textures": [
    {
      "sampler": 0,
      "source": 0
    }
  ],
  "samplers": [
    {
      "magFilter": 9729,
      "minFilter": 9987,
      "wrapS": 10497,
      "wrapT": 10497
    }
  ],
  "images": [
    {
      "mimeType": "image/png",
      "uri": "data:image/png;base64,"
    }
  ]
}