{
	"asset":{
		"generator":"Khronos glTF Blender I/O v3.6.27",
		"version":"2.0"
	},
	"extensionsUsed":[
		"KHR_materials_specular",
		"KHR_materials_ior",
		"KHR_materials_emissive_strength"
	],
	"scene":0,
	"scenes":[
		{
			"name":"Scene",
			"nodes":[
				0
			]
		}
	],
	"nodes":[
		{
			"mesh":0,
			"name":"Aircraft",
			"rotation":[
				0,
				0.9999942183494568,
				0,
				0.0033970570657402277
			],
			"scale":[
				1,
				1.2105839252471924,
				1
			]
		}
	],
	"materials":[
		{
			"doubleSided":true,
			"extensions":{
				"KHR_materials_specular":{
					"specularColorFactor":[
						1.897086119821904,
						1.897086119821904,
						1.897086119821904
					]
				},
				"KHR_materials_ior":{
					"ior":1.4500000476837158
				}
			},
			"name":"Metal",
			"pbrMetallicRoughness":{
				"baseColorFactor":[
					0.3646053373813629,
					0.3646053373813629,
					0.3646053373813629,
					1
				],
				"metallicFactor":0.800000011920929
			}
		},
		{
			"doubleSided":true,
			"emissiveFactor":[
				0.03922014310956001,
				0.23537854850292206,
				1
			],
			"extensions":{
				"KHR_materials_emissive_strength":{
					"emissiveStrength":5
				}
			},
			"name":"Light",
			"pbrMetallicRoughness":{
				"baseColorFactor":[
					0,
					0,
					0,
					1
				]
			}
		},
		{
			"doubleSided":true,
			"extensions":{
				"KHR_materials_specular":{
					"specularColorFactor":[
						1.2887812876148592,
						1.2887812876148592,
						1.2887812876148592
					]
				},
				"KHR_materials_ior":{
					"ior":1.4500000476837158
				}
			},
			"name":"Material",
			"pbrMetallicRoughness":{
				"roughnessFactor":0
			}
		}
	],
	"meshes":[
		{
			"name":"Cube.004",
			"primitives":[
				{
					"attributes":{
						"POSITION":0,
						"NORMAL":1,
						"TEXCOORD_0":2
					},
					"indices":3,
					"material":0
				},
				{
					"attributes":{
						"POSITION":4,
						"NORMAL":5,
						"TEXCOORD_0":6
					},
					"indices":7,
					"material":1
				},
				{
					"attributes":{
						"POSITION":8,
						"NORMAL":9,
						"TEXCOORD_0":10
					},
					"indices":11,
					"material":2
				}
			]
		}
	],
	"accessors":[
		{
			"bufferView":0,
			"componentType":5126,
			"count":2193,
			"max":[
				0.8838657140731812,
				0.14787709712982178,
				1.0102676153182983
			],
			"min":[
				-1.3947558403015137,
				-0.15370291471481323,
				-1.0111345052719116
			],
			"type":"VEC3"
		},
		{
			"bufferView":1,
			"componentType":5126,
			"count":2193,
			"type":"VEC3"
		},
		{
			"bufferView":2,
			"componentType":5126,
			"count":2193,
			"type":"VEC2"
		},
		{
			"bufferView":3,
			"componentType":5123,
			"count":9696,
			"type":"SCALAR"
		},
		{
			"bufferView":4,
			"componentType":5126,
			"count":6,
			"max":[
				0.6561943292617798,
				0.0509529784321785,
				0.3557090163230896
			],
			"min":[
				0.4359506666660309,
				0.008929673582315445,
				-0.3565734624862671
			],
			"type":"VEC3"
		},
		{
			"bufferView":5,
			"componentType":5126,
			"count":6,
			"type":"VEC3"
		},
		{
			"bufferView":6,
			"componentType":5126,
			"count":6,
			"type":"VEC2"
		},
		{
			"bufferView":7,
			"componentType":5123,
			"count":6,
			"type":"SCALAR"
		},
		{
			"bufferView":8,
			"componentType":5126,
			"count":20,
			"max":[
				-0.5726173520088196,
				0.14441224932670593,
				0.12408056110143661
			],
			"min":[
				-1.136348843574524,
				0.07408583909273148,
				-0.12379667162895203
			],
			"type":"VEC3"
		},
		{
			"bufferView":9,
			"componentType":5126,
			"count":20,
			"type":"VEC3"
		},
		{
			"bufferView":10,
			"componentType":5126,
			"count":20,
			"type":"VEC2"
		},
		{
			"bufferView":11,
			"componentType":5123,
			"count":30,
			"type":"SCALAR"
		}
	],
	"bufferViews":[
		{
			"buffer":0,
			"byteLength":26316,
			"byteOffset":0,
			"target":34962
		},
		{
			"buffer":0,
			"byteLength":26316,
			"byteOffset":26316,
			"target":34962
		},
		{
			"buffer":0,
			"byteLength":17544,
			"byteOffset":52632,
			"target":34962
		},
		{
			"buffer":0,
			"byteLength":19392,
			"byteOffset":70176,
			"target":34963
		},
		{
			"buffer":0,
			"byteLength":72,
			"byteOffset":89568,
			"target":34962
		},
		{
			"buffer":0,
			"byteLength":72,
			"byteOffset":89640,
			"target":34962
		},
		{
			"buffer":0,
			"byteLength":48,
			"byteOffset":89712,
			"target":34962
		},
		{
			"buffer":0,
			"byteLength":12,
			"byteOffset":89760,
			"target":34963
		},
		{
			"buffer":0,
			"byteLength":240,
			"byteOffset":89772,
			"target":34962
		},
		{
			"buffer":0,
			"byteLength":240,
			"byteOffset":90012,
			"target":34962
		},
		{
			"buffer":0,
			"byteLength":160,
			"byteOffset":90252,
			"target":34962
		},
		{
			"buffer":0,
			"byteLength":60,
			"byteOffset":90412,
			"target":34963
		}
	],
	"buffers":[
		{
			"byteLength":90472,
			"uri":"data:application/octet-stream;base64,"
		}
	]
}
